<?xml version="1.0" encoding="UTF-8"?>
<svg width="799px" height="145px" viewBox="0 0 799 145" version="1.1" xmlns="http://www.w3.org/2000/svg" xmlns:xlink="http://www.w3.org/1999/xlink">
    <!-- Generator: Sketch 48.2 (47327) - http://www.bohemiancoding.com/sketch -->
    <title>logo</title>
    <desc>Created with Sketch.</desc>
    <defs></defs>
    <g id="logo-v2-copy" stroke="none" stroke-width="1" fill="none" fill-rule="evenodd" transform="translate(-200.000000, -127.000000)">
        <g id="logo" transform="translate(200.000000, 127.000000)" fill="#FFFFFF">
            <path d="M142.124239,90.1653416 C132.514326,128.761027 93.4715991,152.248346 54.9205115,142.624583 C16.3847193,133.00082 -7.07631502,93.9107114 2.54015251,55.3172138 C12.1456947,16.7193409 51.1884218,-6.77016552 89.7285841,2.85140934 C128.277487,12.4729842 151.734151,51.5696564 142.124239,90.1653416 Z M98.0058258,81.9336227 C95.3050865,82.3996062 93.9656421,82.5746235 91.2321268,82.7343268 C89.9844552,82.8087091 88.7324134,82.8874669 87.4781865,82.9552861 C91.1053931,85.4427191 93.3778599,88.8424298 92.2001102,93.570084 C90.0041207,102.397518 78.4866473,101.19865 69.9692671,99.3062753 L67.1046479,111.043371 L67.106833,111.043371 L66.9779142,111.557485 L63.2458246,126.836493 L72.8032954,129.221104 L76.7888525,113.233275 C93.2096099,116.344207 105.557408,115.086271 110.75349,100.216365 C113.987385,90.9732651 111.644997,83.8522496 106.6412,79.4221248 C106.534131,79.47463 106.427063,79.5227597 106.324365,79.5599509 C103.999457,80.4000338 100.728416,81.4654515 98.0058258,81.9336227 Z M95.1783527,62.5069236 C92.462318,73.3995615 75.7050606,67.86464 70.2686209,66.5082561 L75.0626517,47.2585433 C80.4990915,48.6149272 98.0058258,51.1483023 95.1783527,62.5069236 M98.8427054,24.6703758 L89.2131275,22.266076 L85.3739697,37.6872859 C82.8414803,37.0572237 80.2412539,36.4621649 77.6563229,35.8714816 L81.5238866,20.3474491 L71.9008638,17.9453369 L67.9546379,33.7778374 C65.8591613,33.3009154 63.8030159,32.8283687 61.8058673,32.3317572 L48.5359724,28.9626746 L45.9728921,39.2602537 C45.9728921,39.2602537 53.118052,40.8988529 52.9694676,41.0016756 C56.8676222,41.9752092 57.5733979,44.5589018 57.4554044,46.6066039 L54.5754898,58.1730583 L52.0670361,68.2474903 L46.650262,89.9955748 C46.1717329,91.1835046 44.9633924,92.9643054 42.2364323,92.2861135 C42.3325751,92.428315 35.2354866,90.5381284 35.2354866,90.5381284 L30.4567512,101.572968 L42.9880944,104.701402 C45.3195579,105.28771 47.60295,105.90027 49.851381,106.477827 L45.868009,122.496283 L55.4844765,124.900583 L59.4328875,109.048393 L62.5618995,97.4491232 L67.8497548,76.2239028 C68.9619525,76.4951796 70.0741502,76.738016 71.3393024,77.0267945 C75.2243465,77.932509 79.3016763,78.2672295 83.2675678,78.5647589 C85.7060995,78.7463393 88.1533714,78.8688514 90.5984582,78.8382234 C94.2431453,78.7922813 97.9621245,78.1119017 101.407971,76.9567876 C104.300996,75.9898172 107.742472,74.7515699 109.89039,72.4697822 C112.403214,69.8007687 113.666181,66.2544811 114.201522,62.6797532 C115.947388,50.9864113 107.056362,44.7011033 94.8986645,40.5094395 L98.8427054,24.6703758 Z" id="Fill-4"></path>
            <path d="M534.787994,37.2694577 C543.292091,37.2694577 549.705209,38.8754184 554.02754,42.0873879 C558.349871,45.2993574 560.511004,49.9775906 560.511004,56.122228 C560.511004,60.8703568 559.614924,64.972539 557.822738,68.4288975 C556.030552,71.885256 553.482875,74.7305993 550.179631,76.9650129 C546.876386,79.1994265 542.905524,80.8577554 538.266925,81.9400495 C533.628327,83.0223436 528.462692,83.5634825 522.769866,83.5634825 L515.495736,83.5634825 L508.959561,110.585787 L498.733611,110.585787 L516.022847,38.9452595 C518.974683,38.2470053 522.102176,37.7931468 525.40542,37.5836705 C528.708665,37.3741943 531.836158,37.2694577 534.787994,37.2694577 Z M533.522928,45.8579419 C528.53292,45.8579419 525.510848,45.9975907 524.456621,46.2768924 L517.498757,75.0797359 L524.140354,75.0797359 C527.09219,75.0797359 530.114262,74.8178944 533.206661,74.2942038 C536.29906,73.7705131 539.07515,72.8453401 541.535013,71.518657 C543.994876,70.191974 546.015447,68.3590841 547.596788,66.0199324 C549.178128,63.6807807 549.968786,60.6608764 549.968786,56.9601289 C549.968786,52.9800797 548.492891,50.1347363 545.541055,48.4240135 C542.58922,46.7132906 538.583217,45.8579419 533.522928,45.8579419 Z M587.428798,54.9701142 C588.27218,54.9701142 589.22097,55.0050264 590.275197,55.0748518 C591.329424,55.1446773 592.366065,55.2668699 593.385151,55.4414335 C594.404237,55.6159971 595.335457,55.790558 596.178839,55.9651216 C597.02222,56.1396851 597.654747,56.3317022 598.076438,56.5411784 L595.230039,65.024925 C593.824403,64.4663217 592.207946,64.0473754 590.380619,63.7680737 C588.553292,63.488772 586.796274,63.3491232 585.10951,63.3491232 C583.633593,63.3491232 582.175267,63.4538598 580.73449,63.6633361 C579.293713,63.8728124 578.04623,64.1521099 576.992003,64.501237 L565.817253,110.585787 L556.012991,110.585787 L568.663652,58.2169802 C571.474924,57.2394243 574.496996,56.4539 577.729958,55.8603839 C580.962921,55.2668678 584.195836,54.9701142 587.428798,54.9701142 Z M600.641711,110.585787 L590.837449,110.585787 L604.01522,56.122228 L613.819482,56.122228 L600.641711,110.585787 Z M612.027305,46.2768924 C610.410824,46.2768924 609.057919,45.7881218 607.968551,44.8105658 C606.879184,43.8330099 606.334508,42.4714345 606.334508,40.7257989 C606.334508,38.4913854 607.037315,36.7283198 608.442951,35.4365495 C609.848587,34.1447791 611.429904,33.4989037 613.186949,33.4989037 C614.80343,33.4989037 616.173905,34.0051304 617.298414,35.017599 C618.422923,36.0300677 618.985168,37.4440113 618.985168,39.2594723 C618.985168,41.3542351 618.247221,43.0474762 616.771303,44.3392466 C615.295385,45.6310169 613.714068,46.2768924 612.027305,46.2768924 Z M625.029373,110.585787 C624.185991,107.02469 623.377763,103.114525 622.604663,98.8551739 C621.831563,94.595823 621.128756,90.144519 620.49622,85.5011283 C619.863683,80.8577376 619.336578,76.0573117 618.914887,71.0997066 C618.493196,66.1421015 618.212073,61.1496585 618.07151,56.122228 L627.981194,56.122228 C628.051476,59.5436738 628.209607,63.1919974 628.455594,67.0673085 C628.70158,70.9426195 629.000273,74.8178724 629.351682,78.6931835 C629.703091,82.5684945 630.124776,86.3040987 630.616748,89.900108 C631.108721,93.4961174 631.635826,96.760407 632.198081,99.6930748 C634.306535,97.0397087 636.502808,93.9150678 638.786966,90.3190585 C641.071125,86.7230491 643.267398,82.9525328 645.375852,79.0073963 C647.484306,75.0622599 649.417027,71.0997265 651.174072,67.1196773 C652.931117,63.1396281 654.336732,59.4738483 655.390959,56.122228 L665.300643,56.122228 C663.754443,60.730706 661.786582,65.5136758 659.397001,70.4712809 C657.00742,75.428886 654.424603,80.2991363 651.648471,85.0821779 C648.87234,89.8652194 645.955689,94.4561722 642.898431,98.8551739 C639.841173,103.254176 636.871811,107.164341 633.990258,110.585787 L625.029373,110.585787 Z M696.540746,111.214212 C696.189337,110.446133 695.837934,109.590784 695.486525,108.648141 C695.135116,107.705497 694.853993,106.7105 694.643147,105.663119 C693.096948,107.059627 691.023666,108.456115 688.423239,109.852623 C685.822813,111.249132 682.625039,111.947375 678.829822,111.947375 C675.737422,111.947375 673.084324,111.458605 670.870448,110.481049 C668.656571,109.503493 666.846842,108.141918 665.441206,106.396282 C664.03557,104.650646 662.998929,102.590827 662.331252,100.216763 C661.663574,97.8426985 661.329741,95.2242843 661.329741,92.3614419 C661.329741,87.6831385 662.120399,83.1096418 663.70174,78.6408147 C665.28308,74.1719875 667.655055,70.1919981 670.817736,66.7007268 C673.980417,63.2094556 677.95128,60.3815684 682.730442,58.2169802 C687.509604,56.0523921 693.096924,54.9701142 699.492567,54.9701142 C701.390176,54.9701142 703.604019,55.1795874 706.134164,55.5985399 C708.664309,56.0174925 710.843012,56.7157362 712.670339,57.6932922 L704.552832,90.5809025 C704.201423,92.1868873 703.902729,93.7230236 703.656743,95.1893575 C703.410757,96.6556914 703.287765,98.1918277 703.287765,99.7978124 C703.287765,101.403797 703.428327,103.027214 703.709454,104.668111 C703.990581,106.309009 704.482547,108.072074 705.185365,109.957361 L696.540746,111.214212 Z M680.832843,103.673104 C683.784678,103.673104 686.314785,103.044685 688.423239,101.787827 C690.531693,100.530969 692.358993,99.0646575 693.905192,97.3888473 C693.975474,96.2018151 694.098465,94.9624324 694.27417,93.6706621 C694.449874,92.3788917 694.678287,91.0696847 694.959414,89.7430016 L701.284744,63.7680737 C700.933335,63.6284228 700.353519,63.5236863 699.545278,63.4538609 C698.737038,63.3840354 698.01666,63.3491232 697.384124,63.3491232 C693.378061,63.3491232 689.758603,64.1171914 686.52564,65.6533507 C683.292677,67.1895101 680.534158,69.2318731 678.25,71.7805011 C675.965841,74.329129 674.208822,77.2966651 672.978891,80.6831981 C671.748959,84.0697312 671.134003,87.6133183 671.134003,91.3140658 C671.134003,92.7803997 671.274564,94.2641677 671.555692,95.7654143 C671.836819,97.266661 672.346354,98.5933241 673.084313,99.7454436 C673.822272,100.897563 674.806202,101.840192 676.036134,102.573359 C677.266065,103.306526 678.864952,103.673104 680.832843,103.673104 Z M730.732671,112.052113 C725.461536,112.052113 721.596095,110.900011 719.136232,108.595772 C716.676369,106.291533 715.446456,102.939963 715.446456,98.5409611 C715.446456,95.6781187 715.938421,92.0123389 716.922366,87.5435118 L728.202539,40.9352741 L738.42849,39.2594723 L734.317025,56.122228 L752.976749,56.122228 L750.973728,64.2917618 L732.314004,64.2917618 L726.515784,88.3814127 C725.672402,91.6632076 725.250718,94.526007 725.250718,96.9698969 C725.250718,99.2741359 725.883245,100.932465 727.148317,101.944933 C728.413389,102.957402 730.521812,103.463629 733.473647,103.463629 C735.51182,103.463629 737.514821,103.131963 739.482711,102.468622 C741.450602,101.80528 742.961638,101.194317 744.015865,100.635713 L744.75382,108.909985 C743.699593,109.538414 741.907434,110.219201 739.377289,110.952368 C736.847144,111.685535 733.965634,112.052113 730.732671,112.052113 Z M761.551086,81.9924183 C765.62743,81.8527674 769.35231,81.590926 772.725836,81.2068862 C776.099363,80.8228464 779.016014,80.1595148 781.475876,79.2168716 C783.935739,78.2742283 785.85089,76.9999334 787.221385,75.3939487 C788.59188,73.7879639 789.277117,71.6932326 789.277117,69.1096919 C789.277117,68.4812631 789.154126,67.8179315 788.90814,67.1196773 C788.662153,66.4214231 788.240469,65.7755476 787.643074,65.1820315 C787.045678,64.5885154 786.21988,64.0997447 785.165653,63.7157049 C784.111426,63.3316651 782.811232,63.139648 781.265032,63.139648 C778.805169,63.139648 776.503475,63.6633308 774.35988,64.7107122 C772.216285,65.7580936 770.301135,67.137125 768.614371,68.8478479 C766.927608,70.5585708 765.486853,72.5485655 764.292062,74.8178918 C763.097272,77.0872181 762.183622,79.478703 761.551086,81.9924183 Z M771.566192,111.947375 C767.981821,111.947375 764.889468,111.441149 762.289041,110.42868 C759.688615,109.416211 757.509911,108.019724 755.752866,106.239176 C753.995821,104.458627 752.695628,102.381352 751.852246,100.007288 C751.008865,97.6332232 750.58718,95.1195457 750.58718,92.4661795 C750.58718,87.5783999 751.325128,82.8652544 752.801046,78.3266018 C754.276963,73.7879493 756.385386,69.7730476 759.126376,66.2817764 C761.867366,62.7905052 765.205702,60.0149862 769.141482,57.9551362 C773.077263,55.8952862 777.54009,54.8653766 782.530098,54.8653766 C785.411652,54.8653766 787.889048,55.2319546 789.962361,55.9651216 C792.035674,56.6982885 793.722412,57.6932859 795.022626,58.9501435 C796.322839,60.2070012 797.289199,61.655857 797.921735,63.2967544 C798.554272,64.9376519 798.870535,66.630893 798.870535,68.3765286 C798.870535,71.6583236 798.273149,74.4338426 797.078358,76.7031688 C795.883567,78.9724951 794.302251,80.8752094 792.33436,82.4113687 C790.36647,83.9475281 788.064775,85.1345425 785.429208,85.9724476 C782.79364,86.8103527 780.052691,87.4736842 777.206279,87.9624622 C774.359866,88.4512402 771.478355,88.782906 768.56166,88.9574695 C765.644966,89.1320331 762.886446,89.2891379 760.28602,89.4287888 C760.215738,89.9873922 760.180598,90.4412506 760.180598,90.7903777 L760.180598,91.6282786 C760.180598,93.2342634 760.37387,94.7529436 760.76042,96.1843648 C761.14697,97.615786 761.867347,98.8726248 762.921574,99.9549188 C763.975801,101.037213 765.434127,101.892562 767.296594,102.52099 C769.159062,103.149419 771.601318,103.463629 774.623435,103.463629 C775.958789,103.463629 777.346834,103.341436 778.787611,103.097047 C780.228388,102.852658 781.598863,102.538449 782.899076,102.154409 C784.199289,101.770369 785.358921,101.386335 786.378007,101.002295 C787.397094,100.618255 788.117471,100.251677 788.539162,99.90255 L789.382539,108.176821 C787.976903,108.944901 785.710349,109.765338 782.582809,110.638155 C779.455269,111.510973 775.7831,111.947375 771.566192,111.947375 Z" id="Private"></path>
            <path d="M195.969974,112.576313 C191.753067,112.576313 187.430801,112.401752 183.003047,112.052625 C178.575294,111.703497 174.569291,111.144902 170.98492,110.376823 L187.852467,40.2026223 C191.85853,39.4345426 196.057804,38.9108598 200.450417,38.6315581 C204.843029,38.3522564 208.866602,38.2126076 212.521256,38.2126076 C216.738163,38.2126076 220.375192,38.64901 223.43245,39.5218278 C226.489709,40.3946456 228.984675,41.5642039 230.917425,43.0305378 C232.850174,44.4968717 234.290929,46.225025 235.239734,48.2150496 C236.188538,50.2050742 236.662933,52.3172616 236.662933,54.5516752 C236.662933,56.0878345 236.504801,57.6937952 236.188533,59.3696054 C235.872265,61.0454156 235.239738,62.7037445 234.290934,64.344642 C233.34213,65.9855394 232.041936,67.5391318 230.390314,69.0054657 C228.738691,70.4717996 226.577558,71.7984628 223.90685,72.985495 C227.069531,74.3820035 229.388796,76.2847178 230.864713,78.6936949 C232.340631,81.102672 233.078579,83.7734545 233.078579,86.7061223 C233.078579,90.0577426 232.410912,93.2871201 231.075558,96.3943514 C229.740204,99.5015828 227.596641,102.259646 224.644805,104.668623 C221.69297,107.0776 217.862669,108.99777 213.153789,110.429192 C208.444908,111.860613 202.717027,112.576313 195.969974,112.576313 Z M194.494064,79.8981774 L189.960911,98.7509477 C191.085419,98.960424 192.508605,99.1175288 194.230509,99.222267 C195.952413,99.3270051 197.5513,99.3793734 199.027217,99.3793734 C201.135671,99.3793734 203.226524,99.2222685 205.299837,98.9080541 C207.37315,98.5938397 209.23559,98.0177886 210.887212,97.1798835 C212.538834,96.3419784 213.891738,95.1898762 214.945965,93.7235423 C216.000192,92.2572084 216.527298,90.3719502 216.527298,88.0677112 C216.527298,87.0901553 216.334026,86.112614 215.947476,85.1350581 C215.560926,84.1575021 214.94597,83.2846974 214.102588,82.5166178 C213.259206,81.7485381 212.152285,81.1201187 210.78179,80.6313407 C209.411295,80.1425628 207.777267,79.8981774 205.879659,79.8981774 L194.494064,79.8981774 Z M197.551307,67.6438768 L207.88268,67.6438768 C212.099588,67.6438768 215.244651,66.7361599 217.317964,64.9206988 C219.391277,63.1052378 220.427918,60.9406821 220.427918,58.4269669 C220.427918,57.1002838 220.129225,55.9656377 219.53183,55.0229945 C218.934435,54.0803512 218.143776,53.3297392 217.159831,52.7711358 C216.175886,52.2125324 215.051394,51.8110422 213.786322,51.5666532 C212.521249,51.3222643 211.221055,51.2000716 209.885701,51.2000716 C208.409783,51.2000716 206.828467,51.2524399 205.141703,51.357178 C203.45494,51.4619162 202.189887,51.5841088 201.346505,51.7237597 L197.551307,67.6438768 Z M251.035489,111.633674 L235.433008,111.633674 L248.610779,56.5416898 L264.318683,56.5416898 L251.035489,111.633674 Z M258.625885,49.8384826 C256.44715,49.8384826 254.479289,49.1926071 252.722244,47.9008368 C250.965199,46.6090665 250.08669,44.6365278 250.08669,41.9831617 C250.08669,40.5168278 250.385383,39.1377963 250.982778,37.846026 C251.580173,36.5542556 252.370832,35.4370656 253.354777,34.4944224 C254.338722,33.5517792 255.480784,32.8011671 256.780997,32.2425637 C258.081211,31.6839603 259.469255,31.4046628 260.945173,31.4046628 C263.123909,31.4046628 265.09177,32.0505383 266.848815,33.3423087 C268.60586,34.634079 269.484369,36.6066176 269.484369,39.2599838 C269.484369,40.7263177 269.185676,42.1053491 268.588281,43.3971195 C267.990885,44.6888898 267.200227,45.8060798 266.216282,46.7487231 C265.232337,47.6913663 264.090275,48.4419783 262.790061,49.0005817 C261.489848,49.5591851 260.101803,49.8384826 258.625885,49.8384826 Z M275.950262,42.8210626 L292.290699,40.3073599 L288.284657,56.5416898 L305.784737,56.5416898 L302.622072,69.3196786 L285.227414,69.3196786 L280.588838,88.5913993 C280.167147,90.197384 279.903594,91.6986082 279.798172,93.0951166 C279.692749,94.4916251 279.868451,95.6960956 280.325283,96.7085643 C280.782114,97.7210329 281.572773,98.5065572 282.697281,99.0651606 C283.82179,99.6237639 285.367967,99.9030615 287.335857,99.9030615 C289.02262,99.9030615 290.656648,99.7459566 292.237988,99.4317422 C293.819328,99.1175278 295.418215,98.6811254 297.034697,98.122522 L298.194341,110.06261 C296.085887,110.83069 293.801763,111.494021 291.3419,112.052625 C288.882037,112.611228 285.965386,112.890525 282.591859,112.890525 C277.742415,112.890525 273.982395,112.174826 271.311687,110.743404 C268.640978,109.311983 266.743398,107.356901 265.61889,104.878098 C264.494381,102.399295 264.002416,99.5539521 264.142979,96.3419826 C264.283543,93.1300131 264.775508,89.7435308 265.61889,86.1824342 L275.950262,42.8210626 Z M301.919257,89.6387754 C301.919257,84.8906466 302.692346,80.4218865 304.238545,76.232361 C305.784745,72.0428356 307.998588,68.3770558 310.880142,65.2349117 C313.761696,62.0927676 317.258163,59.6140022 321.369648,57.7985412 C325.481134,55.9830802 330.066952,55.0753633 335.127242,55.0753633 C338.289923,55.0753633 341.118723,55.3721169 343.613727,55.965633 C346.10873,56.5591491 348.375284,57.3446733 350.413457,58.3222293 L345.036926,70.4717923 C343.63129,69.9131889 342.172964,69.4069622 340.661906,68.9530969 C339.150847,68.4992317 337.305977,68.2723025 335.127242,68.2723025 C329.856107,68.2723025 325.709543,70.035368 322.687425,73.5615519 C319.665308,77.0877358 318.154272,81.8881617 318.154272,87.9629736 C318.154272,91.5240703 318.92736,94.4043258 320.47356,96.6038267 C322.019759,98.8033275 324.86613,99.9030615 329.012756,99.9030615 C331.050928,99.9030615 333.018789,99.6935883 334.916397,99.2746358 C336.814006,98.8556832 338.500744,98.3320004 339.976662,97.7035716 L341.136306,110.167347 C339.168415,110.935427 337.007282,111.616215 334.652842,112.209731 C332.298402,112.803247 329.434461,113.100001 326.060935,113.100001 C321.703463,113.100001 318.013724,112.471581 314.991607,111.214724 C311.969489,109.957866 309.474523,108.264625 307.506633,106.134949 C305.538742,104.005274 304.115557,101.509052 303.237035,98.6462101 C302.358512,95.7833677 301.919257,92.7809195 301.919257,89.6387754 Z M367.421567,113.100001 C363.696632,113.100001 360.463717,112.541406 357.722727,111.424199 C354.981737,110.306992 352.715183,108.735944 350.922997,106.711006 C349.130811,104.686069 347.777907,102.294584 346.864244,99.5364798 C345.95058,96.7783756 345.493755,93.7235591 345.493755,90.3719387 C345.493755,86.1824133 346.178993,81.9929506 347.549488,77.8034252 C348.919983,73.6138997 350.940554,69.8433834 353.611263,66.491763 C356.281971,63.1401427 359.550026,60.3995359 363.415525,58.2698604 C367.281024,56.140185 371.708711,55.0753633 376.698718,55.0753633 C380.353372,55.0753633 383.568716,55.6339583 386.344847,56.7511651 C389.120978,57.8683719 391.405102,59.4394203 393.197288,61.4643576 C394.989474,63.4892949 396.342378,65.8807798 397.256042,68.6388841 C398.169705,71.3969883 398.62653,74.4518048 398.62653,77.8034252 C398.62653,81.9929506 397.958863,86.1824133 396.623509,90.3719387 C395.288155,94.5614642 393.320294,98.3319805 390.719867,101.683601 C388.119441,105.035221 384.868956,107.775828 380.968316,109.905503 C377.067676,112.035179 372.552138,113.100001 367.421567,113.100001 Z M375.222808,68.2723025 C372.903508,68.2723025 370.865367,68.935634 369.108322,70.2623171 C367.351277,71.5890001 365.875381,73.2647852 364.680591,75.2897225 C363.4858,77.3146598 362.589721,79.5315838 361.992325,81.9405609 C361.39493,84.349538 361.096237,86.6362864 361.096237,88.8008745 C361.096237,92.3619712 361.658483,95.1025779 362.782992,97.0227771 C363.9075,98.9429763 365.945642,99.9030615 368.897478,99.9030615 C371.216777,99.9030615 373.254919,99.2397299 375.011964,97.9130468 C376.769008,96.5863638 378.244904,94.9105787 379.439695,92.8856414 C380.634485,90.8607041 381.530565,88.6437801 382.12796,86.234803 C382.725355,83.8258259 383.024049,81.5390775 383.024049,79.3744894 C383.024049,75.8133928 382.461803,73.072786 381.337294,71.1525868 C380.212785,69.2323876 378.174643,68.2723025 375.222808,68.2723025 Z M414.053308,111.633674 L398.450826,111.633674 L411.628598,56.5416898 L427.336502,56.5416898 L414.053308,111.633674 Z M421.643704,49.8384826 C419.464969,49.8384826 417.497108,49.1926071 415.740063,47.9008368 C413.983018,46.6090665 413.104508,44.6365278 413.104508,41.9831617 C413.104508,40.5168278 413.403202,39.1377963 414.000597,37.846026 C414.597992,36.5542556 415.388651,35.4370656 416.372596,34.4944224 C417.356541,33.5517792 418.498603,32.8011671 419.798816,32.2425637 C421.09903,31.6839603 422.487074,31.4046628 423.962992,31.4046628 C426.141728,31.4046628 428.109589,32.0505383 429.866634,33.3423087 C431.623679,34.634079 432.502188,36.6066176 432.502188,39.2599838 C432.502188,40.7263177 432.203495,42.1053491 431.6061,43.3971195 C431.008704,44.6888898 430.218046,45.8060798 429.234101,46.7487231 C428.250156,47.6913663 427.108093,48.4419783 425.80788,49.0005817 C424.507667,49.5591851 423.119622,49.8384826 421.643704,49.8384826 Z M436.648793,59.0553925 C437.843584,58.7062654 439.161348,58.3047753 440.602125,57.85091 C442.042902,57.3970447 443.659359,56.9780985 445.451545,56.5940586 C447.243731,56.2100188 449.246732,55.8958091 451.460609,55.6514201 C453.674485,55.4070311 456.187022,55.2848385 458.998294,55.2848385 C467.291546,55.2848385 472.984287,57.6588673 476.076686,62.4069961 C479.169085,67.155125 479.696191,73.648792 477.658018,81.8881921 L470.489311,111.633674 L454.781407,111.633674 L461.73927,82.5166178 C462.160961,80.7011567 462.494795,78.9380912 462.740781,77.2273683 C462.986767,75.5166454 462.969197,74.0154213 462.68807,72.723651 C462.406943,71.4318806 461.756846,70.384515 460.73776,69.5815226 C459.718674,68.7785302 458.154927,68.3770401 456.046473,68.3770401 C454.008301,68.3770401 451.935019,68.5865132 449.826565,69.0054657 L439.600614,111.633674 L423.892711,111.633674 L436.648793,59.0553925 Z" id="Bitcoin"></path>
        </g>
    </g>
</svg>