<?xml version="1.0" encoding="UTF-8"?>
<svg width="799px" height="145px" viewBox="0 0 799 145" version="1.1" xmlns="http://www.w3.org/2000/svg" xmlns:xlink="http://www.w3.org/1999/xlink">
    <!-- Generator: Sketch 48.2 (47327) - http://www.bohemiancoding.com/sketch -->
    <title>logo</title>
    <desc>Created with Sketch.</desc>
    <defs></defs>
    <g id="logo-v2" stroke="none" stroke-width="1" fill="none" fill-rule="evenodd" transform="translate(-200.000000, -127.000000)">
        <g id="logo" transform="translate(200.000000, 127.000000)">
            <g id="Group">
                <path d="M142.124239,90.1653416 C132.514326,128.761027 93.4715991,152.248346 54.9205115,142.624583 C16.3847193,133.00082 -7.07631502,93.9107114 2.54015251,55.3172138 C12.1456947,16.7193409 51.1884218,-6.77016552 89.7285841,2.85140934 C128.277487,12.4729842 151.734151,51.5696564 142.124239,90.1653416" id="Fill-4" fill="#272D63"></path>
                <path d="M98.0058258,81.9336227 C95.3050865,82.3996062 93.9656421,82.5746235 91.2321268,82.7343268 C89.9844552,82.8087091 88.7324134,82.8874669 87.4781865,82.9552861 C91.1053931,85.4427191 93.3778599,88.8424298 92.2001102,93.570084 C90.0041207,102.397518 78.4866473,101.19865 69.9692671,99.3062753 L67.1046479,111.043371 L67.106833,111.043371 L66.9779142,111.557485 L63.2458246,126.836493 L72.8032954,129.221104 L76.7888525,113.233275 C93.2096099,116.344207 105.557408,115.086271 110.75349,100.216365 C113.987385,90.9732651 111.644997,83.8522496 106.6412,79.4221248 C106.534131,79.47463 106.427063,79.5227597 106.324365,79.5599509 C103.999457,80.4000338 100.728416,81.4654515 98.0058258,81.9336227" id="Fill-6" fill="#FEFEFE"></path>
                <path d="M95.1783527,62.5069236 C92.462318,73.3995615 75.7050606,67.86464 70.2686209,66.5082561 L75.0626517,47.2585433 C80.4990915,48.6149272 98.0058258,51.1483023 95.1783527,62.5069236 M98.8427054,24.6703758 L89.2131275,22.266076 L85.3739697,37.6872859 C82.8414803,37.0572237 80.2412539,36.4621649 77.6563229,35.8714816 L81.5238866,20.3474491 L71.9008638,17.9453369 L67.9546379,33.7778374 C65.8591613,33.3009154 63.8030159,32.8283687 61.8058673,32.3317572 L48.5359724,28.9626746 L45.9728921,39.2602537 C45.9728921,39.2602537 53.118052,40.8988529 52.9694676,41.0016756 C56.8676222,41.9752092 57.5733979,44.5589018 57.4554044,46.6066039 L54.5754898,58.1730583 L52.0670361,68.2474903 L46.650262,89.9955748 C46.1717329,91.1835046 44.9633924,92.9643054 42.2364323,92.2861135 C42.3325751,92.428315 35.2354866,90.5381284 35.2354866,90.5381284 L30.4567512,101.572968 L42.9880944,104.701402 C45.3195579,105.28771 47.60295,105.90027 49.851381,106.477827 L45.868009,122.496283 L55.4844765,124.900583 L59.4328875,109.048393 L62.5618995,97.4491232 L67.8497548,76.2239028 C68.9619525,76.4951796 70.0741502,76.738016 71.3393024,77.0267945 C75.2243465,77.932509 79.3016763,78.2672295 83.2675678,78.5647589 C85.7060995,78.7463393 88.1533714,78.8688514 90.5984582,78.8382234 C94.2431453,78.7922813 97.9621245,78.1119017 101.407971,76.9567876 C104.300996,75.9898172 107.742472,74.7515699 109.89039,72.4697822 C112.403214,69.8007687 113.666181,66.2544811 114.201522,62.6797532 C115.947388,50.9864113 107.056362,44.7011033 94.8986645,40.5094395 L98.8427054,24.6703758 Z" id="Fill-8" fill="#FEFEFE"></path>
            </g>
            <g id="Group-2" transform="translate(170.984920, 31.404663)">
                <path d="M363.803074,5.86479489 C372.307172,5.86479489 378.72029,7.47075556 383.04262,10.6827251 C387.364951,13.8946946 389.526084,18.5729278 389.526084,24.7175652 C389.526084,29.465694 388.630004,33.5678761 386.837819,37.0242346 C385.045633,40.4805931 382.497956,43.3259365 379.194711,45.5603501 C375.891467,47.7947636 371.920604,49.4530926 367.282006,50.5353867 C362.643407,51.6176807 357.477772,52.1588197 351.784946,52.1588197 L344.510816,52.1588197 L337.974642,79.1811237 L327.748691,79.1811237 L345.037927,7.54059669 C347.989763,6.84234245 351.117256,6.388484 354.420501,6.17900773 C357.723745,5.96953146 360.851238,5.86479489 363.803074,5.86479489 Z M362.538008,14.4532791 C357.548,14.4532791 354.525928,14.5929279 353.471701,14.8722296 L346.513838,43.675073 L353.155435,43.675073 C356.10727,43.675073 359.129342,43.4132316 362.221741,42.8895409 C365.314141,42.3658503 368.09023,41.4406773 370.550093,40.1139942 C373.009956,38.7873111 375.030527,36.9544213 376.611868,34.6152695 C378.193208,32.2761178 378.983867,29.2562135 378.983867,25.5554661 C378.983867,21.5754169 377.507971,18.7300735 374.556136,17.0193506 C371.6043,15.3086277 367.598297,14.4532791 362.538008,14.4532791 Z M416.443879,23.5654514 C417.28726,23.5654514 418.23605,23.6003636 419.290277,23.670189 C420.344504,23.7400145 421.381145,23.8622071 422.400231,24.0367707 C423.419317,24.2113342 424.350537,24.3858952 425.193919,24.5604587 C426.0373,24.7350223 426.669827,24.9270393 427.091518,25.1365156 L424.245119,33.6202622 C422.839483,33.0616588 421.223026,32.6427126 419.395699,32.3634109 C417.568373,32.0841092 415.811354,31.9444604 414.124591,31.9444604 C412.648673,31.9444604 411.190348,32.049197 409.749571,32.2586733 C408.308794,32.4681495 407.061311,32.747447 406.007084,33.0965742 L394.832333,79.1811237 L385.028071,79.1811237 L397.678732,26.8123174 C400.490004,25.8347615 403.512076,25.0492372 406.745039,24.4557211 C409.978002,23.862205 413.210916,23.5654514 416.443879,23.5654514 Z M429.656791,79.1811237 L419.852529,79.1811237 L433.0303,24.7175652 L442.834562,24.7175652 L429.656791,79.1811237 Z M441.042385,14.8722296 C439.425904,14.8722296 438.073,14.3834589 436.983632,13.405903 C435.894264,12.4283471 435.349588,11.0667717 435.349588,9.32113611 C435.349588,7.08672253 436.052396,5.32365702 437.458032,4.03188667 C438.863668,2.74011632 440.444984,2.09424084 442.202029,2.09424084 C443.818511,2.09424084 445.188985,2.60046757 446.313494,3.61293622 C447.438003,4.62540487 448.000249,6.0393485 448.000249,7.85480953 C448.000249,9.94957226 447.262301,11.6428134 445.786383,12.9345837 C444.310465,14.2263541 442.729149,14.8722296 441.042385,14.8722296 Z M454.044453,79.1811237 C453.201072,75.6200271 452.392843,71.709862 451.619743,67.4505111 C450.846644,63.1911602 450.143836,58.7398562 449.5113,54.0964655 C448.878764,49.4530748 448.351658,44.6526489 447.929967,39.6950438 C447.508277,34.7374386 447.227154,29.7449957 447.08659,24.7175652 L456.996274,24.7175652 C457.066556,28.1390109 457.224688,31.7873346 457.470674,35.6626457 C457.71666,39.5379567 458.015353,43.4132096 458.366762,47.2885207 C458.718171,51.1638317 459.139856,54.8994359 459.631828,58.4954452 C460.123801,62.0914546 460.650907,65.3557442 461.213161,68.288412 C463.321615,65.6350459 465.517888,62.510405 467.802047,58.9143957 C470.086205,55.3183863 472.282479,51.54787 474.390933,47.6027335 C476.499387,43.657597 478.432107,39.6950637 480.189152,35.7150145 C481.946197,31.7349653 483.351812,28.0691855 484.406039,24.7175652 L494.315723,24.7175652 C492.769524,29.3260432 490.801663,34.109013 488.412081,39.0666181 C486.0225,44.0242232 483.439683,48.8944735 480.663552,53.677515 C477.887421,58.4605566 474.97077,63.0515094 471.913512,67.4505111 C468.856253,71.8495128 465.886892,75.7596779 463.005338,79.1811237 L454.044453,79.1811237 Z M525.555827,79.8095494 C525.204418,79.0414697 524.853014,78.1861211 524.501605,77.2434779 C524.150196,76.3008346 523.869073,75.3058373 523.658228,74.2584559 C522.112028,75.6549644 520.038746,77.0514519 517.43832,78.4479604 C514.837893,79.8444689 511.640119,80.5427127 507.844902,80.5427127 C504.752503,80.5427127 502.099405,80.053942 499.885528,79.0763861 C497.671651,78.0988302 495.861922,76.7372548 494.456286,74.9916192 C493.05065,73.2459836 492.014009,71.1861645 491.346332,68.8121001 C490.678655,66.4380356 490.344821,63.8196215 490.344821,60.9567791 C490.344821,56.2784757 491.13548,51.704979 492.71682,47.2361519 C494.298161,42.7673247 496.670136,38.7873352 499.832817,35.296064 C502.995498,31.8047928 506.96636,28.9769056 511.745522,26.8123174 C516.524685,24.6477293 522.112004,23.5654514 528.507648,23.5654514 C530.405256,23.5654514 532.6191,23.7749245 535.149244,24.1938771 C537.679389,24.6128296 539.858092,25.3110734 541.685419,26.2886293 L533.567912,59.1762397 C533.216503,60.7822245 532.91781,62.3183607 532.671823,63.7846947 C532.425837,65.2510286 532.302846,66.7871649 532.302846,68.3931496 C532.302846,69.9991344 532.443407,71.6225511 532.724534,73.2634486 C533.005662,74.9043461 533.497627,76.6674116 534.200445,78.552698 L525.555827,79.8095494 Z M509.847923,72.2684413 C512.799759,72.2684413 515.329866,71.6400219 517.43832,70.3831642 C519.546774,69.1263066 521.374073,67.6599947 522.920272,65.9841845 C522.990554,64.7971523 523.113546,63.5577696 523.28925,62.2659993 C523.464955,60.9742289 523.693367,59.6650219 523.974494,58.3383388 L530.299825,32.3634109 C529.948416,32.22376 529.368599,32.1190235 528.560359,32.049198 C527.752118,31.9793726 527.03174,31.9444604 526.399204,31.9444604 C522.393142,31.9444604 518.773683,32.7125286 515.54072,34.2486879 C512.307758,35.7848472 509.549238,37.8272103 507.26508,40.3758382 C504.980921,42.9244662 503.223903,45.8920022 501.993971,49.2785353 C500.76404,52.6650684 500.149083,56.2086555 500.149083,59.909403 C500.149083,61.3757369 500.289645,62.8595049 500.570772,64.3607515 C500.851899,65.8619981 501.361435,67.1886613 502.099393,68.3407808 C502.837352,69.4929003 503.821283,70.4355294 505.051214,71.1686963 C506.281146,71.9018633 507.880033,72.2684413 509.847923,72.2684413 Z M559.747751,80.6474503 C554.476616,80.6474503 550.611175,79.4953481 548.151312,77.1911091 C545.691449,74.8868701 544.461536,71.5353 544.461536,67.1362983 C544.461536,64.2734559 544.953502,60.6076761 545.937447,56.1388489 L557.217619,9.53061133 L567.44357,7.85480953 L563.332105,24.7175652 L581.99183,24.7175652 L579.988808,32.8870989 L561.329084,32.8870989 L555.530864,56.9767498 C554.687483,60.2585448 554.265798,63.1213442 554.265798,65.5652341 C554.265798,67.8694731 554.898325,69.527802 556.163397,70.5402707 C557.42847,71.5527393 559.536892,72.058966 562.488728,72.058966 C564.5269,72.058966 566.529901,71.7273003 568.497792,71.0639587 C570.465682,70.4006172 571.976718,69.7896539 573.030945,69.2310505 L573.7689,77.5053219 C572.714673,78.1337507 570.922514,78.8145384 568.392369,79.5477053 C565.862225,80.2808723 562.980714,80.6474503 559.747751,80.6474503 Z M590.566166,50.5877555 C594.642511,50.4481046 598.36739,50.1862632 601.740917,49.8022234 C605.114443,49.4181835 608.031094,48.754852 610.490957,47.8122087 C612.95082,46.8695655 614.86597,45.5952706 616.236465,43.9892859 C617.60696,42.3833011 618.292198,40.2885698 618.292198,37.7050291 C618.292198,37.0766003 618.169206,36.4132687 617.92322,35.7150145 C617.677234,35.0167602 617.255549,34.3708848 616.658154,33.7773686 C616.060759,33.1838525 615.23496,32.6950819 614.180733,32.3110421 C613.126506,31.9270022 611.826312,31.7349852 610.280112,31.7349852 C607.820249,31.7349852 605.518555,32.258668 603.37496,33.3060494 C601.231365,34.3534308 599.316215,35.7324622 597.629452,37.4431851 C595.942689,39.153908 594.501933,41.1439027 593.307143,43.413229 C592.112352,45.6825553 591.198702,48.0740402 590.566166,50.5877555 Z M600.581273,80.5427127 C596.996901,80.5427127 593.904548,80.0364859 591.304121,79.0240173 C588.703695,78.0115486 586.524992,76.6150611 584.767947,74.8345128 C583.010902,73.0539645 581.710708,70.9766893 580.867326,68.6026248 C580.023945,66.2285604 579.60226,63.7148828 579.60226,61.0615167 C579.60226,56.173737 580.340208,51.4605916 581.816126,46.921939 C583.292044,42.3832865 585.400466,38.3683848 588.141456,34.8771136 C590.882446,31.3858424 594.220782,28.6103234 598.156563,26.5504734 C602.092343,24.4906234 606.555171,23.4607138 611.545179,23.4607138 C614.426732,23.4607138 616.904129,23.8272918 618.977442,24.5604587 C621.050755,25.2936257 622.737493,26.2886231 624.037706,27.5454807 C625.337919,28.8023383 626.304279,30.2511942 626.936816,31.8920916 C627.569352,33.5329891 627.885615,35.2262302 627.885615,36.9718658 C627.885615,40.2536608 627.288229,43.0291797 626.093438,45.298506 C624.898648,47.5678323 623.317331,49.4705466 621.349441,51.0067059 C619.38155,52.5428652 617.079856,53.7298797 614.444288,54.5677847 C611.808721,55.4056898 609.067772,56.0690214 606.221359,56.5577994 C603.374946,57.0465774 600.493435,57.3782431 597.576741,57.5528067 C594.660046,57.7273703 591.901527,57.8844751 589.3011,58.024126 C589.230818,58.5827294 589.195678,59.0365878 589.195678,59.3857149 L589.195678,60.2236158 C589.195678,61.8296006 589.38895,63.3482808 589.7755,64.779702 C590.16205,66.2111232 590.882428,67.467962 591.936655,68.550256 C592.990882,69.6325501 594.449207,70.4878987 596.311675,71.1163275 C598.174142,71.7447564 600.616398,72.058966 603.638516,72.058966 C604.97387,72.058966 606.361915,71.9367734 607.802691,71.6923844 C609.243468,71.4479954 610.613943,71.1337857 611.914156,70.7497459 C613.214369,70.3657061 614.374002,69.981672 615.393088,69.5976322 C616.412174,69.2135923 617.132552,68.8470143 617.554242,68.4978872 L618.39762,76.7721586 C616.991984,77.5402383 614.72543,78.3606747 611.59789,79.2334925 C608.47035,80.1063103 604.798181,80.5427127 600.581273,80.5427127 Z" id="Private" fill="#75A0D5"></path>
                <path d="M24.9850548,81.1716498 C20.7681468,81.1716498 16.445881,80.9970888 12.0181276,80.6479617 C7.59037426,80.2988346 3.58437177,79.7402396 0,78.9721599 L16.8675475,8.79795946 C20.8736101,8.02987979 25.0728846,7.50619697 29.4654971,7.22689527 C33.8581096,6.94759357 37.8816823,6.80794482 41.5363358,6.80794482 C45.7532438,6.80794482 49.3902724,7.24434717 52.4475306,8.11716498 C55.5047889,8.98998278 57.9997554,10.1595411 59.9325049,11.625875 C61.8652544,13.0922089 63.3060096,14.8203622 64.2548139,16.8103868 C65.2036182,18.8004114 65.6780132,20.9125988 65.6780132,23.1470124 C65.6780132,24.6831717 65.5198816,26.2891324 65.2036135,27.9649426 C64.8873454,29.6407527 64.2548187,31.2990817 63.3060144,32.9399792 C62.3572101,34.5808766 61.0570163,36.134469 59.405394,37.6008029 C57.7537717,39.0671368 55.5926388,40.3938 52.9219304,41.5808322 C56.0846114,42.9773407 58.403876,44.880055 59.8797938,47.2890321 C61.3557116,49.6980092 62.0936594,52.3687916 62.0936594,55.3014594 C62.0936594,58.6530798 61.4259923,61.8824572 60.0906381,64.9896886 C58.7552839,68.09692 56.6117212,70.8549829 53.6598856,73.26396 C50.70805,75.6729371 46.8777494,77.5931075 42.1688689,79.0245287 C37.4599883,80.4559499 31.7321076,81.1716498 24.9850548,81.1716498 Z M23.5091444,48.4935146 L18.975991,67.3462849 C20.1004998,67.5557612 21.5236849,67.712866 23.245589,67.8176042 C24.967493,67.9223423 26.56638,67.9747106 28.0422978,67.9747106 C30.1507518,67.9747106 32.2416039,67.8176057 34.314917,67.5033913 C36.3882301,67.1891769 38.2506699,66.6131258 39.9022922,65.7752207 C41.5539144,64.9373156 42.9068188,63.7852134 43.9610458,62.3188795 C45.0152728,60.8525456 45.5423784,58.9672874 45.5423784,56.6630484 C45.5423784,55.6854925 45.3491063,54.7079512 44.9625564,53.7303953 C44.5760065,52.7528393 43.96105,51.8800346 43.1176684,51.1119549 C42.2742868,50.3438753 41.1673651,49.7154559 39.79687,49.2266779 C38.4263749,48.7378999 36.7923476,48.4935146 34.894739,48.4935146 L23.5091444,48.4935146 Z M26.5663874,36.239214 L36.8977603,36.239214 C41.1146682,36.239214 44.2597316,35.3314971 46.3330447,33.516036 C48.4063577,31.700575 49.4429987,29.5360193 49.4429987,27.022304 C49.4429987,25.695621 49.1443056,24.5609749 48.5469103,23.6183316 C47.949515,22.6756884 47.1588566,21.9250764 46.1749114,21.366473 C45.1909662,20.8078696 44.0664743,20.4063794 42.8014019,20.1619904 C41.5363295,19.9176014 40.2361357,19.7954088 38.9007815,19.7954088 C37.4248637,19.7954088 35.843547,19.8477771 34.1567838,19.9525152 C32.4700206,20.0572533 31.2049672,20.179446 30.3615856,20.3190968 L26.5663874,36.239214 Z M80.0505694,80.2290112 L64.4480879,80.2290112 L77.6258594,25.137027 L93.3337631,25.137027 L80.0505694,80.2290112 Z M87.6409658,18.4338198 C85.46223,18.4338198 83.4943691,17.7879443 81.7373241,16.496174 C79.9802792,15.2044036 79.1017698,13.231865 79.1017698,10.5784989 C79.1017698,9.11216496 79.400463,7.73313352 79.9978583,6.44136317 C80.5952536,5.14959283 81.385912,4.0324028 82.3698572,3.08975957 C83.3538024,2.14711634 84.4958645,1.39650429 85.7960778,0.837900901 C87.0962911,0.279297507 88.4843358,0 89.9602536,0 C92.1389894,0 94.1068502,0.645875485 95.8638952,1.93764583 C97.6209402,3.22941618 98.4994495,5.20195483 98.4994495,7.85532094 C98.4994495,9.32165485 98.2007563,10.7006863 97.603361,11.9924566 C97.0059658,13.284227 96.2153074,14.401417 95.2313622,15.3440602 C94.247417,16.2867035 93.1053549,17.0373155 91.8051416,17.5959189 C90.5049283,18.1545223 89.1168836,18.4338198 87.6409658,18.4338198 Z M104.965343,11.4163998 L121.305779,8.90269707 L117.299737,25.137027 L134.799817,25.137027 L131.637152,37.9150158 L114.242494,37.9150158 L109.603918,57.1867365 C109.182228,58.7927212 108.918675,60.2939453 108.813252,61.6904538 C108.707829,63.0869623 108.883531,64.2914328 109.340363,65.3039015 C109.797195,66.3163701 110.587853,67.1018943 111.712362,67.6604977 C112.836871,68.2191011 114.383047,68.4983986 116.350937,68.4983986 C118.037701,68.4983986 119.671728,68.3412938 121.253068,68.0270794 C122.834409,67.712865 124.433296,67.2764626 126.049777,66.7178592 L127.209421,78.6579471 C125.100967,79.4260267 122.816843,80.0893583 120.35698,80.6479617 C117.897117,81.2065651 114.980466,81.4858626 111.60694,81.4858626 C106.757495,81.4858626 102.997476,80.7701627 100.326767,79.3387415 C97.6560588,77.9073203 95.7584787,75.9522378 94.6339699,73.4734352 C93.5094611,70.9946327 93.0174959,68.1492893 93.1580595,64.9373198 C93.2986231,61.7253503 93.7905883,58.338868 94.6339699,54.7777714 L104.965343,11.4163998 Z M130.934338,58.2341126 C130.934338,53.4859838 131.707426,49.0172236 133.253626,44.8276982 C134.799825,40.6381727 137.013669,36.972393 139.895222,33.8302489 C142.776776,30.6881048 146.273243,28.2093394 150.384729,26.3938784 C154.496214,24.5784173 159.082032,23.6707004 164.142322,23.6707004 C167.305003,23.6707004 170.133803,23.967454 172.628807,24.5609702 C175.123811,25.1544863 177.390365,25.9400105 179.428537,26.9175664 L174.052006,39.0671295 C172.64637,38.5085261 171.188045,38.0022994 169.676986,37.5484341 C168.165927,37.0945689 166.321058,36.8676396 164.142322,36.8676396 C158.871187,36.8676396 154.724623,38.6307051 151.702506,42.1568891 C148.680388,45.683073 147.169352,50.4834989 147.169352,56.5583108 C147.169352,60.1194074 147.942441,62.999663 149.48864,65.1991638 C151.03484,67.3986647 153.88121,68.4983986 158.027836,68.4983986 C160.066008,68.4983986 162.033869,68.2889255 163.931478,67.869973 C165.829086,67.4510204 167.515824,66.9273376 168.991742,66.2989088 L170.151386,78.7626847 C168.183495,79.5307643 166.022363,80.211552 163.667922,80.8050681 C161.313482,81.3985842 158.449542,81.6953378 155.076015,81.6953378 C150.718544,81.6953378 147.028805,81.0669184 144.006687,79.8100608 C140.98457,78.5532032 138.489603,76.859962 136.521713,74.7302866 C134.553823,72.6006111 133.130637,70.1043897 132.252115,67.2415473 C131.373592,64.3787049 130.934338,61.3762567 130.934338,58.2341126 Z M196.436647,81.6953378 C192.711712,81.6953378 189.478798,81.1367428 186.737808,80.019536 C183.996817,78.9023292 181.730263,77.3312808 179.938077,75.3063435 C178.145892,73.2814062 176.792987,70.8899212 175.879324,68.131817 C174.96566,65.3737127 174.508836,62.3188962 174.508836,58.9672759 C174.508836,54.7777504 175.194073,50.5882878 176.564568,46.3987624 C177.935063,42.2092369 179.955635,38.4387206 182.626343,35.0871002 C185.297051,31.7354799 188.565106,28.9948731 192.430605,26.8651976 C196.296104,24.7355222 200.723791,23.6707004 205.713799,23.6707004 C209.368452,23.6707004 212.583796,24.2292955 215.359927,25.3465022 C218.136058,26.463709 220.420183,28.0347575 222.212369,30.0596948 C224.004554,32.0846321 225.357459,34.476117 226.271122,37.2342213 C227.184786,39.9923255 227.64161,43.047142 227.64161,46.3987624 C227.64161,50.5882878 226.973943,54.7777504 225.638589,58.9672759 C224.303235,63.1568013 222.335374,66.9273177 219.734947,70.278938 C217.134521,73.6305584 213.884036,76.3711652 209.983397,78.5008406 C206.082757,80.6305161 201.567219,81.6953378 196.436647,81.6953378 Z M204.237888,36.8676396 C201.918589,36.8676396 199.880447,37.5309712 198.123402,38.8576543 C196.366357,40.1843373 194.890462,41.8601224 193.695671,43.8850597 C192.50088,45.909997 191.604801,48.1269209 191.007406,50.5358981 C190.41001,52.9448752 190.111317,55.2316236 190.111317,57.3962117 C190.111317,60.9573083 190.673563,63.6979151 191.798072,65.6181143 C192.922581,67.5383135 194.960722,68.4983986 197.912558,68.4983986 C200.231857,68.4983986 202.269999,67.8350671 204.027044,66.508384 C205.784089,65.1817009 207.259984,63.5059159 208.454775,61.4809786 C209.649566,59.4560413 210.545645,57.2391173 211.14304,54.8301402 C211.740436,52.4211631 212.039129,50.1344147 212.039129,47.9698266 C212.039129,44.4087299 211.476883,41.6681231 210.352374,39.747924 C209.227865,37.8277248 207.189724,36.8676396 204.237888,36.8676396 Z M243.068388,80.2290112 L227.465907,80.2290112 L240.643678,25.137027 L256.351582,25.137027 L243.068388,80.2290112 Z M250.658785,18.4338198 C248.480049,18.4338198 246.512188,17.7879443 244.755143,16.496174 C242.998098,15.2044036 242.119589,13.231865 242.119589,10.5784989 C242.119589,9.11216496 242.418282,7.73313352 243.015677,6.44136317 C243.613072,5.14959283 244.403731,4.0324028 245.387676,3.08975957 C246.371621,2.14711634 247.513683,1.39650429 248.813897,0.837900901 C250.11411,0.279297507 251.502155,0 252.978072,0 C255.156808,0 257.124669,0.645875485 258.881714,1.93764583 C260.638759,3.22941618 261.517268,5.20195483 261.517268,7.85532094 C261.517268,9.32165485 261.218575,10.7006863 260.62118,11.9924566 C260.023785,13.284227 259.233126,14.401417 258.249181,15.3440602 C257.265236,16.2867035 256.123174,17.0373155 254.82296,17.5959189 C253.522747,18.1545223 252.134702,18.4338198 250.658785,18.4338198 Z M265.663874,27.6507297 C266.858664,27.3016026 268.176428,26.9001124 269.617205,26.4462472 C271.057982,25.9923819 272.674439,25.5734357 274.466625,25.1893958 C276.258811,24.805356 278.261812,24.4911463 280.475689,24.2467573 C282.689566,24.0023683 285.202102,23.8801757 288.013374,23.8801757 C296.306627,23.8801757 301.999367,26.2542045 305.091766,31.0023333 C308.184165,35.7504622 308.711271,42.2441292 306.673099,50.4835293 L299.504391,80.2290112 L283.796487,80.2290112 L290.754351,51.1119549 C291.176042,49.2964939 291.509875,47.5334284 291.755861,45.8227055 C292.001848,44.1119826 291.984278,42.6107585 291.70315,41.3189882 C291.422023,40.0272178 290.771926,38.9798522 289.75284,38.1768598 C288.733754,37.3738674 287.170007,36.9723772 285.061553,36.9723772 C283.023381,36.9723772 280.950099,37.1818504 278.841645,37.6008029 L268.615695,80.2290112 L252.907791,80.2290112 L265.663874,27.6507297 Z" id="Bitcoin" fill="#272D63"></path>
            </g>
        </g>
    </g>
</svg>