<?xml version="1.0" encoding="utf-8"?>
<!-- Generator: Adobe Illustrator 17.1.0, SVG Export Plug-In . SVG Version: 6.00 Build 0)  -->
<!DOCTYPE svg PUBLIC "-//W3C//DTD SVG 1.1//EN" "http://www.w3.org/Graphics/SVG/1.1/DTD/svg11.dtd">
<svg version="1.1" id="Layer_1" xmlns="http://www.w3.org/2000/svg" xmlns:xlink="http://www.w3.org/1999/xlink" x="0px" y="0px"
	 viewBox="0 0 799 145" enable-background="new 0 0 799 145" xml:space="preserve">
<title>logo</title>
<desc>Created with Sketch.</desc>
<g id="logo-v2" transform="translate(-200.000000, -127.000000)">
	<g id="logo" transform="translate(200.000000, 127.000000)">
		<g id="Group">
			<path id="Fill-4" fill="#272D63" d="M142.1,90.2c-9.6,38.6-48.7,62.1-87.2,52.5C16.4,133-7.1,93.9,2.5,55.3
				C12.1,16.7,51.2-6.8,89.7,2.9C128.3,12.5,151.7,51.6,142.1,90.2"/>
			<path id="Fill-6" fill="#FEFEFE" d="M98,81.9c-2.7,0.5-4,0.6-6.8,0.8c-1.2,0.1-2.5,0.2-3.8,0.2c3.6,2.5,5.9,5.9,4.7,10.6
				c-2.2,8.8-13.7,7.6-22.2,5.7L67.1,111h0l-0.1,0.5l-3.7,15.3l9.6,2.4l4-16c16.4,3.1,28.8,1.9,34-13c3.2-9.2,0.9-16.4-4.1-20.8
				c-0.1,0.1-0.2,0.1-0.3,0.1C104,80.4,100.7,81.5,98,81.9"/>
			<path id="Fill-8" fill="#FEFEFE" d="M95.2,62.5c-2.7,10.9-19.5,5.4-24.9,4l4.8-19.2C80.5,48.6,98,51.1,95.2,62.5 M98.8,24.7
				l-9.6-2.4l-3.8,15.4c-2.5-0.6-5.1-1.2-7.7-1.8l3.9-15.5l-9.6-2.4L68,33.8c-2.1-0.5-4.2-0.9-6.1-1.4L48.5,29L46,39.3
				c0,0,7.1,1.6,7,1.7c3.9,1,4.6,3.6,4.5,5.6l-2.9,11.6l-2.5,10.1L46.7,90c-0.5,1.2-1.7,3-4.4,2.3c0.1,0.1-7-1.7-7-1.7l-4.8,11
				l12.5,3.1c2.3,0.6,4.6,1.2,6.9,1.8l-4,16l9.6,2.4l3.9-15.9l3.1-11.6l5.3-21.2c1.1,0.3,2.2,0.5,3.5,0.8c3.9,0.9,8,1.2,11.9,1.5
				c2.4,0.2,4.9,0.3,7.3,0.3c3.6,0,7.4-0.7,10.8-1.9c2.9-1,6.3-2.2,8.5-4.5c2.5-2.7,3.8-6.2,4.3-9.8c1.7-11.7-7.1-18-19.3-22.2
				L98.8,24.7z"/>
		</g>
		<g id="Group-2" transform="translate(170.984920, 31.404663)">
			<path id="Private" fill="#75A0D5" d="M363.8,5.9c8.5,0,14.9,1.6,19.2,4.8c4.3,3.2,6.5,7.9,6.5,14c0,4.7-0.9,8.9-2.7,12.3
				c-1.8,3.5-4.3,6.3-7.6,8.5c-3.3,2.2-7.3,3.9-11.9,5c-4.6,1.1-9.8,1.6-15.5,1.6h-7.3l-6.5,27h-10.2L345,7.5c3-0.7,6.1-1.2,9.4-1.4
				C357.7,6,360.9,5.9,363.8,5.9z M362.5,14.5c-5,0-8,0.1-9.1,0.4l-7,28.8h6.6c3,0,6-0.3,9.1-0.8c3.1-0.5,5.9-1.4,8.3-2.8
				c2.5-1.3,4.5-3.2,6.1-5.5c1.6-2.3,2.4-5.4,2.4-9.1c0-4-1.5-6.8-4.4-8.5C371.6,15.3,367.6,14.5,362.5,14.5z M416.4,23.6
				c0.8,0,1.8,0,2.8,0.1s2.1,0.2,3.1,0.4c1,0.2,2,0.3,2.8,0.5c0.8,0.2,1.5,0.4,1.9,0.6l-2.8,8.5c-1.4-0.6-3-1-4.8-1.3
				s-3.6-0.4-5.3-0.4c-1.5,0-2.9,0.1-4.4,0.3s-2.7,0.5-3.7,0.8l-11.2,46.1H385l12.7-52.4c2.8-1,5.8-1.8,9.1-2.4
				C410,23.9,413.2,23.6,416.4,23.6z M429.7,79.2h-9.8L433,24.7h9.8L429.7,79.2z M441,14.9c-1.6,0-3-0.5-4.1-1.5
				c-1.1-1-1.6-2.3-1.6-4.1c0-2.2,0.7-4,2.1-5.3s3-1.9,4.7-1.9c1.6,0,3,0.5,4.1,1.5c1.1,1,1.7,2.4,1.7,4.2c0,2.1-0.7,3.8-2.2,5.1
				S442.7,14.9,441,14.9z M454,79.2c-0.8-3.6-1.7-7.5-2.4-11.7s-1.5-8.7-2.1-13.4s-1.2-9.4-1.6-14.4s-0.7-10-0.8-15h9.9
				c0.1,3.4,0.2,7.1,0.5,10.9c0.2,3.9,0.5,7.8,0.9,11.6s0.8,7.6,1.3,11.2s1,6.9,1.6,9.8c2.1-2.7,4.3-5.8,6.6-9.4
				c2.3-3.6,4.5-7.4,6.6-11.3s4-7.9,5.8-11.9s3.2-7.6,4.2-11h9.9c-1.5,4.6-3.5,9.4-5.9,14.3s-5,9.8-7.7,14.6
				c-2.8,4.8-5.7,9.4-8.8,13.8s-6,8.3-8.9,11.7H454z M525.6,79.8c-0.4-0.8-0.7-1.6-1.1-2.6c-0.4-0.9-0.6-1.9-0.8-3
				c-1.5,1.4-3.6,2.8-6.2,4.2c-2.6,1.4-5.8,2.1-9.6,2.1c-3.1,0-5.7-0.5-8-1.5s-4-2.3-5.4-4.1c-1.4-1.7-2.4-3.8-3.1-6.2
				c-0.7-2.4-1-5-1-7.9c0-4.7,0.8-9.3,2.4-13.7c1.6-4.5,4-8.4,7.1-11.9c3.2-3.5,7.1-6.3,11.9-8.5s10.4-3.2,16.8-3.2
				c1.9,0,4.1,0.2,6.6,0.6c2.5,0.4,4.7,1.1,6.5,2.1l-8.1,32.9c-0.4,1.6-0.7,3.1-0.9,4.6s-0.4,3-0.4,4.6s0.1,3.2,0.4,4.9
				c0.3,1.6,0.8,3.4,1.5,5.3L525.6,79.8z M509.8,72.3c3,0,5.5-0.6,7.6-1.9c2.1-1.3,3.9-2.7,5.5-4.4c0.1-1.2,0.2-2.4,0.4-3.7
				s0.4-2.6,0.7-3.9l6.3-26c-0.4-0.1-0.9-0.2-1.7-0.3c-0.8-0.1-1.5-0.1-2.2-0.1c-4,0-7.6,0.8-10.9,2.3s-6,3.6-8.3,6.1
				c-2.3,2.5-4,5.5-5.3,8.9c-1.2,3.4-1.8,6.9-1.8,10.6c0,1.5,0.1,3,0.4,4.5c0.3,1.5,0.8,2.8,1.5,4c0.7,1.2,1.7,2.1,3,2.8
				C506.3,71.9,507.9,72.3,509.8,72.3z M559.7,80.6c-5.3,0-9.1-1.2-11.6-3.5s-3.7-5.7-3.7-10.1c0-2.9,0.5-6.5,1.5-11l11.3-46.6
				l10.2-1.7l-4.1,16.9H582l-2,8.2h-18.7L555.5,57c-0.8,3.3-1.3,6.1-1.3,8.6c0,2.3,0.6,4,1.9,5c1.3,1,3.4,1.5,6.3,1.5c2,0,4-0.3,6-1
				c2-0.7,3.5-1.3,4.5-1.8l0.7,8.3c-1.1,0.6-2.8,1.3-5.4,2C565.9,80.3,563,80.6,559.7,80.6z M590.6,50.6c4.1-0.1,7.8-0.4,11.2-0.8
				s6.3-1,8.8-2c2.5-0.9,4.4-2.2,5.7-3.8c1.4-1.6,2.1-3.7,2.1-6.3c0-0.6-0.1-1.3-0.4-2s-0.7-1.3-1.3-1.9c-0.6-0.6-1.4-1.1-2.5-1.5
				c-1.1-0.4-2.4-0.6-3.9-0.6c-2.5,0-4.8,0.5-6.9,1.6c-2.1,1-4.1,2.4-5.7,4.1c-1.7,1.7-3.1,3.7-4.3,6
				C592.1,45.7,591.2,48.1,590.6,50.6z M600.6,80.5c-3.6,0-6.7-0.5-9.3-1.5c-2.6-1-4.8-2.4-6.5-4.2s-3.1-3.9-3.9-6.2
				c-0.8-2.4-1.3-4.9-1.3-7.5c0-4.9,0.7-9.6,2.2-14.1c1.5-4.5,3.6-8.6,6.3-12c2.7-3.5,6.1-6.3,10-8.3s8.4-3.1,13.4-3.1
				c2.9,0,5.4,0.4,7.4,1.1c2.1,0.7,3.8,1.7,5.1,3c1.3,1.3,2.3,2.7,2.9,4.3c0.6,1.6,0.9,3.3,0.9,5.1c0,3.3-0.6,6.1-1.8,8.3
				c-1.2,2.3-2.8,4.2-4.7,5.7s-4.3,2.7-6.9,3.6c-2.6,0.8-5.4,1.5-8.2,2c-2.8,0.5-5.7,0.8-8.6,1s-5.7,0.3-8.3,0.5
				c-0.1,0.6-0.1,1-0.1,1.4v0.8c0,1.6,0.2,3.1,0.6,4.6s1.1,2.7,2.2,3.8c1.1,1.1,2.5,1.9,4.4,2.6c1.9,0.6,4.3,0.9,7.3,0.9
				c1.3,0,2.7-0.1,4.2-0.4c1.4-0.2,2.8-0.6,4.1-0.9c1.3-0.4,2.5-0.8,3.5-1.2c1-0.4,1.7-0.8,2.2-1.1l0.8,8.3
				c-1.4,0.8-3.7,1.6-6.8,2.5C608.5,80.1,604.8,80.5,600.6,80.5z"/>
			<path id="Bitcoin" fill="#272D63" d="M25,81.2c-4.2,0-8.5-0.2-13-0.5C7.6,80.3,3.6,79.7,0,79L16.9,8.8c4-0.8,8.2-1.3,12.6-1.6
				s8.4-0.4,12.1-0.4c4.2,0,7.9,0.4,10.9,1.3c3.1,0.9,5.6,2,7.5,3.5c1.9,1.5,3.4,3.2,4.3,5.2c0.9,2,1.4,4.1,1.4,6.3
				c0,1.5-0.2,3.1-0.5,4.8s-0.9,3.3-1.9,5c-0.9,1.6-2.2,3.2-3.9,4.7c-1.7,1.5-3.8,2.8-6.5,4c3.2,1.4,5.5,3.3,7,5.7s2.2,5.1,2.2,8
				c0,3.4-0.7,6.6-2,9.7c-1.3,3.1-3.5,5.9-6.4,8.3c-3,2.4-6.8,4.3-11.5,5.8S31.7,81.2,25,81.2z M23.5,48.5L19,67.3
				c1.1,0.2,2.5,0.4,4.3,0.5C25,67.9,26.6,68,28,68c2.1,0,4.2-0.2,6.3-0.5c2.1-0.3,3.9-0.9,5.6-1.7c1.7-0.8,3-2,4.1-3.5
				c1.1-1.5,1.6-3.4,1.6-5.7c0-1-0.2-2-0.6-2.9c-0.4-1-1-1.9-1.8-2.6c-0.8-0.8-2-1.4-3.3-1.9s-3-0.7-4.9-0.7H23.5z M26.6,36.2h10.3
				c4.2,0,7.4-0.9,9.4-2.7c2.1-1.8,3.1-4,3.1-6.5c0-1.3-0.3-2.5-0.9-3.4c-0.6-0.9-1.4-1.7-2.4-2.3s-2.1-1-3.4-1.2
				c-1.3-0.2-2.6-0.4-3.9-0.4c-1.5,0-3.1,0.1-4.7,0.2s-3,0.2-3.8,0.4L26.6,36.2z M80.1,80.2H64.4l13.2-55.1h15.7L80.1,80.2z
				 M87.6,18.4c-2.2,0-4.1-0.6-5.9-1.9c-1.8-1.3-2.6-3.3-2.6-5.9c0-1.5,0.3-2.8,0.9-4.1s1.4-2.4,2.4-3.4s2.1-1.7,3.4-2.3
				C87.1,0.3,88.5,0,90,0c2.2,0,4.1,0.6,5.9,1.9c1.8,1.3,2.6,3.3,2.6,5.9c0,1.5-0.3,2.8-0.9,4.1s-1.4,2.4-2.4,3.4s-2.1,1.7-3.4,2.3
				C90.5,18.2,89.1,18.4,87.6,18.4z M105,11.4l16.3-2.5l-4,16.2h17.5l-3.2,12.8h-17.4l-4.6,19.3c-0.4,1.6-0.7,3.1-0.8,4.5
				c-0.1,1.4,0.1,2.6,0.5,3.6s1.2,1.8,2.4,2.4c1.1,0.6,2.7,0.8,4.6,0.8c1.7,0,3.3-0.2,4.9-0.5c1.6-0.3,3.2-0.8,4.8-1.3l1.2,11.9
				c-2.1,0.8-4.4,1.4-6.9,2c-2.5,0.6-5.4,0.8-8.8,0.8c-4.8,0-8.6-0.7-11.3-2.1c-2.7-1.4-4.6-3.4-5.7-5.9c-1.1-2.5-1.6-5.3-1.5-8.5
				c0.1-3.2,0.6-6.6,1.5-10.2L105,11.4z M130.9,58.2c0-4.7,0.8-9.2,2.3-13.4c1.5-4.2,3.8-7.9,6.6-11c2.9-3.1,6.4-5.6,10.5-7.4
				c4.1-1.8,8.7-2.7,13.8-2.7c3.2,0,6,0.3,8.5,0.9c2.5,0.6,4.8,1.4,6.8,2.4l-5.4,12.1c-1.4-0.6-2.9-1.1-4.4-1.5s-3.4-0.7-5.5-0.7
				c-5.3,0-9.4,1.8-12.4,5.3c-3,3.5-4.5,8.3-4.5,14.4c0,3.6,0.8,6.4,2.3,8.6c1.5,2.2,4.4,3.3,8.5,3.3c2,0,4-0.2,5.9-0.6
				c1.9-0.4,3.6-0.9,5.1-1.6l1.2,12.5c-2,0.8-4.1,1.4-6.5,2s-5.2,0.9-8.6,0.9c-4.4,0-8-0.6-11.1-1.9c-3-1.3-5.5-3-7.5-5.1
				s-3.4-4.6-4.3-7.5C131.4,64.4,130.9,61.4,130.9,58.2z M196.4,81.7c-3.7,0-7-0.6-9.7-1.7c-2.7-1.1-5-2.7-6.8-4.7s-3.1-4.4-4.1-7.2
				c-0.9-2.8-1.4-5.8-1.4-9.2c0-4.2,0.7-8.4,2.1-12.6c1.4-4.2,3.4-8,6.1-11.3s5.9-6.1,9.8-8.2s8.3-3.2,13.3-3.2
				c3.7,0,6.9,0.6,9.6,1.7c2.8,1.1,5.1,2.7,6.9,4.7c1.8,2,3.1,4.4,4.1,7.2c0.9,2.8,1.4,5.8,1.4,9.2c0,4.2-0.7,8.4-2,12.6
				c-1.3,4.2-3.3,8-5.9,11.3c-2.6,3.4-5.9,6.1-9.8,8.2S201.6,81.7,196.4,81.7z M204.2,36.9c-2.3,0-4.4,0.7-6.1,2
				c-1.8,1.3-3.2,3-4.4,5c-1.2,2-2.1,4.2-2.7,6.7c-0.6,2.4-0.9,4.7-0.9,6.9c0,3.6,0.6,6.3,1.7,8.2c1.1,1.9,3.2,2.9,6.1,2.9
				c2.3,0,4.4-0.7,6.1-2c1.8-1.3,3.2-3,4.4-5c1.2-2,2.1-4.2,2.7-6.7s0.9-4.7,0.9-6.9c0-3.6-0.6-6.3-1.7-8.2
				C209.2,37.8,207.2,36.9,204.2,36.9z M243.1,80.2h-15.6l13.2-55.1h15.7L243.1,80.2z M250.7,18.4c-2.2,0-4.1-0.6-5.9-1.9
				s-2.6-3.3-2.6-5.9c0-1.5,0.3-2.8,0.9-4.1c0.6-1.3,1.4-2.4,2.4-3.4s2.1-1.7,3.4-2.3c1.3-0.6,2.7-0.8,4.2-0.8
				c2.2,0,4.1,0.6,5.9,1.9s2.6,3.3,2.6,5.9c0,1.5-0.3,2.8-0.9,4.1c-0.6,1.3-1.4,2.4-2.4,3.4s-2.1,1.7-3.4,2.3
				C253.5,18.2,252.1,18.4,250.7,18.4z M265.7,27.7c1.2-0.3,2.5-0.8,4-1.2c1.4-0.5,3.1-0.9,4.8-1.3c1.8-0.4,3.8-0.7,6-0.9
				c2.2-0.2,4.7-0.4,7.5-0.4c8.3,0,14,2.4,17.1,7.1s3.6,11.2,1.6,19.5l-7.2,29.7h-15.7l7-29.1c0.4-1.8,0.8-3.6,1-5.3
				c0.2-1.7,0.2-3.2-0.1-4.5s-0.9-2.3-2-3.1c-1-0.8-2.6-1.2-4.7-1.2c-2,0-4.1,0.2-6.2,0.6l-10.2,42.6h-15.7L265.7,27.7z"/>
		</g>
	</g>
</g>
</svg>
